<svg>
    <symbol id="icon1" viewBox="0 0 427 394">
        <svg width="427" height="394" viewBox="0 0 427 394" xmlns="http://www.w3.org/2000/svg" xmlns:xlink="http://www.w3.org/1999/xlink"><g style="mix-blend-mode:multiply" opacity="0.6"><rect x="88.603" y="80.3063" width="333.539" height="312.835" fill="url(#pattern0)"/></g><rect x="262.579" y="123.623" width="81.7874" height="33.1613" fill="url(#pattern1)"/><rect x="275.358" y="131.613" width="27.6884" height="19.9767" fill="url(#pattern2)"/><rect x="291.119" y="221.508" width="88.177" height="94.29" fill="url(#pattern3)"/><rect x="184.199" y="177.56" width="140.998" height="140.636" fill="url(#pattern4)"/><rect x="147.565" y="145.597" width="59.2106" height="119.061" fill="url(#pattern5)"/><rect x="221.259" y="140.003" width="117.995" height="80.7059" fill="url(#pattern6)"/><rect x="179.087" y="108.041" width="81.7874" height="57.1334" fill="url(#pattern7)"/><rect x="330.309" y="159.581" width="69.0081" height="67.5212" fill="url(#pattern8)"/><g style="mix-blend-mode:multiply" opacity="0.6"><rect x="173.798" y="78.7083" width="228.749" height="162.211" fill="url(#pattern9)"/></g><rect x="169.716" y="127.618" width="115.439" height="158.215" fill="url(#pattern10)"/><rect x="277.914" y="101.648" width="34.9301" height="34.3599" fill="url(#pattern11)"/><g style="mix-blend-mode:soft-light"><rect x="213.84" y="44.3481" width="142.702" height="141.835" fill="url(#pattern12)"/></g><g style="mix-blend-mode:soft-light" opacity="0.7"><rect x="240.25" y="47.5444" width="135.46" height="141.435" fill="url(#pattern13)"/></g><rect x="286.007" y="115.232" width="34.078" height="24.3716" fill="url(#pattern14)"/><rect x="263.005" y="155.985" width="96.2705" height="164.608" fill="url(#pattern15)"/><rect x="292.823" y="118.828" width="25.9845" height="23.5724" fill="url(#pattern16)"/><rect x="329.457" y="126.819" width="21.2988" height="11.187" fill="url(#pattern17)"/><rect x="307.732" y="124.821" width="57.0807" height="37.1566" fill="url(#pattern18)"/><g style="mix-blend-mode:soft-light"><rect x="286.256" y="69.9183" width="140.572" height="147.428" fill="url(#pattern19)"/></g><rect x="290.267" y="118.029" width="48.5613" height="41.951" fill="url(#pattern20)"/><g style="mix-blend-mode:soft-light"><rect x="232.157" y="61.5281" width="145.684" height="146.629" fill="url(#pattern21)"/></g><g style="mix-blend-mode:soft-light" opacity="0.7"><rect x="264.531" y="65.5234" width="136.738" height="145.83" fill="url(#pattern22)"/></g><rect x="275.358" y="111.636" width="18.3169" height="30.3646" fill="url(#pattern23)"/><rect x="252.355" y="98.4519" width="43.8755" height="49.9417" fill="url(#pattern24)"/><g style="mix-blend-mode:soft-light"><rect x="205.746" y="48.7432" width="146.536" height="144.232" fill="url(#pattern25)"/></g><defs><pattern id="pattern0" patternContentUnits="objectBoundingBox" width="1" height="1"><use xlink:href="#image0_15_420" transform="scale(0.00127551)"/></pattern><pattern id="pattern1" patternContentUnits="objectBoundingBox" width="1" height="1"><use xlink:href="#image1_15_420" transform="scale(0.00520833 0.0120482)"/></pattern><pattern id="pattern2" patternContentUnits="objectBoundingBox" width="1" height="1"><use xlink:href="#image2_15_420" transform="scale(0.0153846 0.02)"/></pattern><pattern id="pattern3" patternContentUnits="objectBoundingBox" width="1" height="1"><use xlink:href="#image3_15_420" transform="scale(0.00483092 0.00423729)"/></pattern><pattern id="pattern4" patternContentUnits="objectBoundingBox" width="1" height="1"><use xlink:href="#image4_15_420" transform="scale(0.00302115 0.00284091)"/></pattern><pattern id="pattern5" patternContentUnits="objectBoundingBox" width="1" height="1"><use xlink:href="#image5_15_420" transform="scale(0.00719424 0.0033557)"/></pattern><pattern id="pattern6" patternContentUnits="objectBoundingBox" width="1" height="1"><use xlink:href="#image6_15_420" transform="scale(0.00361011 0.0049505)"/></pattern><pattern id="pattern7" patternContentUnits="objectBoundingBox" width="1" height="1"><use xlink:href="#image7_15_420" transform="scale(0.00520833 0.00699301)"/></pattern><pattern id="pattern8" patternContentUnits="objectBoundingBox" width="1" height="1"><use xlink:href="#image8_15_420" transform="scale(0.00617284 0.00591716)"/></pattern><pattern id="pattern9" patternContentUnits="objectBoundingBox" width="1" height="1"><use xlink:href="#image9_15_420" transform="scale(0.00185874 0.002457)"/></pattern><pattern id="pattern10" patternContentUnits="objectBoundingBox" width="1" height="1"><use xlink:href="#image10_15_420" transform="scale(0.00369004 0.00252525)"/></pattern><pattern id="pattern11" patternContentUnits="objectBoundingBox" width="1" height="1"><use xlink:href="#image11_15_420" transform="scale(0.0121951 0.0116279)"/></pattern><pattern id="pattern12" patternContentUnits="objectBoundingBox" width="1" height="1"><use xlink:href="#image12_15_420" transform="scale(0.00297619 0.00280899)"/></pattern><pattern id="pattern13" patternContentUnits="objectBoundingBox" width="1" height="1"><use xlink:href="#image13_15_420" transform="scale(0.0031348 0.0028169)"/></pattern><pattern id="pattern14" patternContentUnits="objectBoundingBox" width="1" height="1"><use xlink:href="#image14_15_420" transform="scale(0.0125 0.0163934)"/></pattern><pattern id="pattern15" patternContentUnits="objectBoundingBox" width="1" height="1"><use xlink:href="#image15_15_420" transform="scale(0.00442478 0.00242718)"/></pattern><pattern id="pattern16" patternContentUnits="objectBoundingBox" width="1" height="1"><use xlink:href="#image16_15_420" transform="scale(0.0163934 0.0169492)"/></pattern><pattern id="pattern17" patternContentUnits="objectBoundingBox" width="1" height="1"><use xlink:href="#image17_15_420" transform="scale(0.02 0.0357143)"/></pattern><pattern id="pattern18" patternContentUnits="objectBoundingBox" width="1" height="1"><use xlink:href="#image18_15_420" transform="scale(0.00746269 0.0107527)"/></pattern><pattern id="pattern19" patternContentUnits="objectBoundingBox" width="1" height="1"><use xlink:href="#image19_15_420" transform="scale(0.00302115 0.0027027)"/></pattern><pattern id="pattern20" patternContentUnits="objectBoundingBox" width="1" height="1"><use xlink:href="#image20_15_420" transform="scale(0.00877193 0.00952381)"/></pattern><pattern id="pattern21" patternContentUnits="objectBoundingBox" width="1" height="1"><use xlink:href="#image21_15_420" transform="scale(0.00291545 0.00271739)"/></pattern><pattern id="pattern22" patternContentUnits="objectBoundingBox" width="1" height="1"><use xlink:href="#image22_15_420" transform="scale(0.00310559 0.00273224)"/></pattern><pattern id="pattern23" patternContentUnits="objectBoundingBox" width="1" height="1"><use xlink:href="#image23_15_420" transform="scale(0.0232558 0.0131579)"/></pattern><pattern id="pattern24" patternContentUnits="objectBoundingBox" width="1" height="1"><use xlink:href="#image24_15_420" transform="scale(0.00970874 0.008)"/></pattern><pattern id="pattern25" patternContentUnits="objectBoundingBox" width="1" height="1"><use xlink:href="#image25_15_420" transform="scale(0.00289855 0.00276243)"/></pattern></defs>
        </svg>
        
    </symbol>
</svg>