<svg width="16" height="15" viewBox="0 0 16 15" fill="none" xmlns="http://www.w3.org/2000/svg">
<path d="M3.23789 5.21777H1.23899C0.963024 5.21777 0.739258 5.43981 0.739258 5.71371V13.6484C0.739258 13.9223 0.962991 14.1444 1.23899 14.1444H3.23786C3.51382 14.1444 3.73759 13.9224 3.73759 13.6484V5.71368C3.73759 5.43981 3.51389 5.21777 3.23789 5.21777Z" fill="#667CA6"/>
<path d="M15.4771 6.53264C15.389 5.76332 14.6648 5.21805 13.8846 5.21805H9.98841C10.3195 4.62969 10.4972 2.96557 10.4894 2.28577C10.4763 1.16052 9.53726 0.258789 8.40331 0.258789H7.99093C7.71472 0.258789 7.49117 0.480593 7.49117 0.754729C7.49117 1.90153 7.04119 3.97147 6.19253 4.81368C5.62131 5.38053 5.13299 5.58593 4.49268 5.90349V13.3448C5.47301 13.6691 6.71772 14.1447 8.61492 14.1447H11.884C12.9612 14.1447 13.8001 13.1547 13.3827 12.1087C14.0186 11.9368 14.4876 11.3581 14.4876 10.6733C14.4876 10.48 14.45 10.295 14.3822 10.125C15.4538 9.83527 15.8483 8.52217 15.1045 7.69768C15.3777 7.39474 15.5284 6.98037 15.4771 6.53264Z" fill="#667CA6"/>
</svg>
