<svg width="53" height="53" viewBox="0 0 53 53" fill="none" xmlns="http://www.w3.org/2000/svg">
<path d="M12.402 31.8169C12.8536 30.8947 13.3241 29.9819 13.8087 29.0691C10.4918 29.7043 7.24545 30.0854 3.77798 30.4901C3.6933 30.4995 3.60861 30.5042 3.52392 30.5042C2.43711 30.5042 1.49614 29.6902 1.3644 28.5797C1.22326 27.3846 2.07954 26.3071 3.27457 26.1659C7.94647 25.6201 12.1996 25.1214 16.7539 23.9403C18.5559 21.0231 20.5366 18.1717 22.7055 15.3768C26.7941 10.1163 30.8496 6.09331 34.877 3.29838C35.545 2.83256 36.1943 2.43262 36.8248 2.07972C33.649 0.743431 30.1627 0 26.4976 0C11.8656 0 0 11.8667 0 26.5C0 33.6049 2.79938 40.0464 7.34896 44.8034C8.11114 41.4862 9.80018 37.1574 12.402 31.8169Z" fill="white"/>
<path d="M38.3962 6.70501C36.7259 8.1307 34.7781 10.1493 32.5527 12.7513C30.3274 15.358 28.1208 18.1858 25.9377 21.2301C29.6263 19.6868 32.8256 17.7671 35.5262 15.4662C38.2268 13.1653 40.2169 10.7468 41.4919 8.21069C42.3764 6.39917 42.4423 5.31226 41.7037 4.95466C41.1673 4.69587 40.0664 5.27932 38.3962 6.70501Z" fill="white"/>
<path d="M46.3616 8.9635C46.2157 9.32581 46.0558 9.69282 45.8723 10.0739C42.8235 16.3272 36.1756 21.4418 25.9426 25.4225C25.8579 25.4695 25.7732 25.5166 25.6791 25.5542C24.4794 26.0436 23.322 26.4718 22.1928 26.8576C20.5038 29.5819 19.13 32.0287 18.0761 34.1978C16.5847 37.2562 15.1591 40.4417 13.7947 43.7636C12.6326 46.5914 12.1433 48.2947 12.3127 48.8829C12.4585 48.977 12.6044 49.0758 12.7549 49.1652C13.6065 49.217 14.7074 47.8713 16.053 45.114C17.1822 42.799 18.1184 40.484 18.8618 38.1643C19.6052 35.8493 20.2968 33.3555 20.9366 30.6924C21.0966 30.2924 21.4589 29.8642 22.0329 29.4078C22.6021 28.9514 23.2044 28.6032 23.8395 28.3586C24.47 28.1186 24.9499 28.0763 25.2792 28.2315C25.872 28.5233 26.5683 28.8997 27.3729 29.3608C27.6269 29.5208 27.928 29.6854 28.2856 29.8595C29.4712 30.4383 30.8403 30.9794 32.3976 31.4782C32.647 31.5628 32.9151 31.657 33.1974 31.7605C33.4797 31.8593 33.7526 31.9769 34.0208 32.1087C34.8488 32.5133 34.9618 33.3414 34.3548 34.5883C33.2116 36.9315 30.798 37.2044 27.1235 35.4117C26.4131 35.0636 25.4533 34.4331 24.2488 33.5108C23.736 35.5388 23.0585 37.7361 22.2211 40.0982C21.3789 42.4602 20.6073 44.3706 19.8969 45.8245C18.8148 48.0406 17.6621 49.7628 16.4341 51.0144C19.5393 52.2895 22.9409 53 26.5025 53C41.1392 53 53.0001 41.1333 53.0001 26.5C53.0001 19.7762 50.4877 13.6405 46.3616 8.9635Z" fill="white"/>
</svg>
